<mxfile host="app.diagrams.net" modified="2023-06-18T09:46:37.765Z" agent="Mozilla/5.0 (Windows NT 10.0; Win64; x64) AppleWebKit/537.36 (KHTML, like Gecko) Chrome/114.0.0.0 Safari/537.36" etag="C60D9gJfolir07O-dNl6" version="21.3.4" type="github">
  <diagram name="第 1 页" id="EhfgojfhC6-Sg8B57hXv">
    <mxGraphModel dx="1624" dy="766" grid="1" gridSize="10" guides="1" tooltips="1" connect="1" arrows="1" fold="1" page="1" pageScale="1" pageWidth="980" pageHeight="1390" math="0" shadow="0">
      <root>
        <mxCell id="0" />
        <mxCell id="1" parent="0" />
        <mxCell id="C_nK5SQBtKQ7kxFQxHzk-3" value="" style="edgeStyle=orthogonalEdgeStyle;rounded=0;orthogonalLoop=1;jettySize=auto;html=1;" edge="1" parent="1" source="C_nK5SQBtKQ7kxFQxHzk-1" target="C_nK5SQBtKQ7kxFQxHzk-2">
          <mxGeometry relative="1" as="geometry" />
        </mxCell>
        <mxCell id="C_nK5SQBtKQ7kxFQxHzk-83" value="" style="edgeStyle=orthogonalEdgeStyle;rounded=0;orthogonalLoop=1;jettySize=auto;html=1;" edge="1" parent="1" source="C_nK5SQBtKQ7kxFQxHzk-1" target="C_nK5SQBtKQ7kxFQxHzk-82">
          <mxGeometry relative="1" as="geometry" />
        </mxCell>
        <mxCell id="C_nK5SQBtKQ7kxFQxHzk-1" value="IDLE" style="rounded=1;whiteSpace=wrap;html=1;" vertex="1" parent="1">
          <mxGeometry x="260" y="320" width="120" height="60" as="geometry" />
        </mxCell>
        <mxCell id="C_nK5SQBtKQ7kxFQxHzk-85" value="" style="edgeStyle=orthogonalEdgeStyle;rounded=0;orthogonalLoop=1;jettySize=auto;html=1;" edge="1" parent="1" source="C_nK5SQBtKQ7kxFQxHzk-2" target="C_nK5SQBtKQ7kxFQxHzk-84">
          <mxGeometry relative="1" as="geometry" />
        </mxCell>
        <mxCell id="C_nK5SQBtKQ7kxFQxHzk-2" value="delay_updata" style="rounded=1;whiteSpace=wrap;html=1;" vertex="1" parent="1">
          <mxGeometry x="260" y="460" width="120" height="60" as="geometry" />
        </mxCell>
        <mxCell id="C_nK5SQBtKQ7kxFQxHzk-78" value="" style="shape=curlyBracket;whiteSpace=wrap;html=1;rounded=1;labelPosition=left;verticalLabelPosition=middle;align=right;verticalAlign=middle;" vertex="1" parent="1">
          <mxGeometry x="420" y="440" width="20" height="120" as="geometry" />
        </mxCell>
        <mxCell id="C_nK5SQBtKQ7kxFQxHzk-80" value="接受数据，每次计算&lt;br&gt;移位16" style="text;html=1;align=center;verticalAlign=middle;resizable=0;points=[];autosize=1;strokeColor=none;fillColor=none;" vertex="1" parent="1">
          <mxGeometry x="460" y="430" width="130" height="40" as="geometry" />
        </mxCell>
        <mxCell id="C_nK5SQBtKQ7kxFQxHzk-81" value="将计算后的数据输出给delay mem块" style="text;html=1;align=center;verticalAlign=middle;resizable=0;points=[];autosize=1;strokeColor=none;fillColor=none;" vertex="1" parent="1">
          <mxGeometry x="440" y="508" width="210" height="30" as="geometry" />
        </mxCell>
        <mxCell id="C_nK5SQBtKQ7kxFQxHzk-82" value="delay mem块 复位" style="rounded=1;whiteSpace=wrap;html=1;" vertex="1" parent="1">
          <mxGeometry x="460" y="320" width="120" height="60" as="geometry" />
        </mxCell>
        <mxCell id="C_nK5SQBtKQ7kxFQxHzk-84" value="wait_next_delay" style="rounded=1;whiteSpace=wrap;html=1;" vertex="1" parent="1">
          <mxGeometry x="260" y="600" width="120" height="60" as="geometry" />
        </mxCell>
      </root>
    </mxGraphModel>
  </diagram>
</mxfile>
